<?xml version="1.0" standalone="no"?><!DOCTYPE svg PUBLIC "-//W3C//DTD SVG 1.1//EN" "http://www.w3.org/Graphics/SVG/1.1/DTD/svg11.dtd"><svg width="200.1953125" height="200" viewBox="0 0 200.1953125 200" version="1.1" xmlns="http://www.w3.org/2000/svg" xmlns:xlink="http://www.w3.org/1999/xlink"><defs><style type="text/css"><![CDATA[
@font-face { font-family: ifont; src: url("//at.alicdn.com/t/font_1442373896_4754455.eot?#iefix") format("embedded-opentype"), url("//at.alicdn.com/t/font_1442373896_4754455.woff") format("woff"), url("//at.alicdn.com/t/font_1442373896_4754455.ttf") format("truetype"), url("//at.alicdn.com/t/font_1442373896_4754455.svg#ifont") format("svg"); }

]]></style></defs><g class="transform-group"><g transform="scale(0.1953125, 0.1953125)"><path d="M512 512c-11.702857 0-22.381714 4.681143-30.134857 12.580571-7.899429 7.753143-12.580571 18.285714-12.580571 30.134857 0 23.405714 19.309714 42.715429 42.715429 42.715429 11.702857 0 22.381714-4.681143 30.134857-12.580571 7.899429-7.753143 12.580571-18.285714 12.580571-30.134857C554.715429 531.163429 535.552 512 512 512L512 512 512 512zM782.336 938.276571c120.832-84.992 199.826286-225.28 199.826286-383.561143 0-132.681143-55.296-252.489143-144.237714-337.92l40.374857-40.374857 73.435429 73.289143c4.096 4.242286 9.654857 6.290286 15.067429 6.290286 5.412571 0 10.971429-2.048 15.067429-6.290286 57.197714-57.051429 57.197714-149.796571 0-206.848C954.368 15.213714 917.504 0 878.299429 0c-39.204571 0-75.922286 15.213714-103.716571 42.861714-8.338286 8.338286-8.338286 21.796571 0 30.134857l73.435429 73.289143-42.569143 42.422857C724.992 123.904 622.884571 85.284571 512 85.284571c-110.884571 0-212.992 38.619429-293.595429 103.424l-42.569143-42.422857 73.435429-73.289143c8.338286-8.338286 8.338286-21.796571 0-30.134857C221.622857 15.213714 184.758857 0 145.554286 0 106.496 0 69.632 15.213714 41.984 42.861714c-57.051429 57.051429-57.051429 149.942857 0 206.848 4.096 4.242286 9.654857 6.290286 15.067429 6.290286 5.412571 0 10.971429-2.048 15.067429-6.290286l73.435429-73.289143 40.374857 40.374857c-88.941714 85.284571-144.237714 205.238857-144.237714 337.92 0 158.281143 79.140571 298.715429 199.826286 383.561143l0.292571 0-63.195429 47.396571c-9.508571 7.021714-11.410286 20.48-4.242286 29.842286 4.242286 5.558857 10.532571 8.484571 17.115429 8.484571 4.534857 0 8.923429-1.316571 12.726857-4.242286l76.068571-56.905143C348.745143 1001.764571 427.739429 1024 512 1024c84.260571 0 163.254857-22.235429 231.716571-61.293714l0 0 76.068571 56.905143c3.803429 2.925714 8.338286 4.242286 12.873143 4.242286 6.582857 0 12.873143-2.925714 17.115429-8.484571 7.168-9.362286 5.12-22.820571-4.242286-29.842286l-63.195429-47.396571L782.336 938.130286 782.336 938.276571 782.336 938.276571zM329.728 259.364571c48.566857-30.866286 107.958857-46.08 182.272-46.08 11.702857 0 21.357714 9.654857 21.357714 21.357714l0 85.284571c0 11.702857-9.654857 21.357714-21.357714 21.357714-11.702857 0-21.357714-9.654857-21.357714-21.357714l0-63.341714c-55.734857 2.340571-101.083429 15.213714-137.801143 38.619429-3.364571 2.340571-7.460571 3.364571-11.556571 3.364571-7.021714 0-13.897143-3.364571-17.993143-9.801143C316.854857 279.113143 319.780571 265.801143 329.728 259.364571L329.728 259.364571 329.728 259.364571zM634.002286 676.425143c-4.242286 4.096-9.654857 6.144-15.213714 6.144-5.558857 0-10.825143-2.194286-15.067429-6.144l-48.566857-48.420571c-12.580571 7.606857-27.501714 11.995429-43.154286 11.995429-47.250286 0-85.430857-38.180571-85.430857-85.284571 0-15.506286 4.242286-30.573714 11.995429-43.154286L261.705143 335.140571c-8.338286-8.338286-8.338286-21.942857 0-30.281143 8.338286-8.338286 21.942857-8.338286 30.281143 0L468.845714 481.28c12.580571-7.753143 27.648-11.995429 43.154286-11.995429 47.250286 0 85.430857 38.180571 85.430857 85.284571 0 15.506286-4.242286 30.573714-11.995429 43.154286l48.566857 48.420571C642.340571 654.482286 642.340571 668.233143 634.002286 676.425143L634.002286 676.425143 634.002286 676.425143zM634.002286 676.425143" fill="#ffffff"></path></g></g></svg>